<?xml version="1.0" standalone="no"?>
<!DOCTYPE svg PUBLIC "-//W3C//DTD SVG 20010904//EN"
 "http://www.w3.org/TR/2001/REC-SVG-20010904/DTD/svg10.dtd">
<svg version="1.0" xmlns="http://www.w3.org/2000/svg"
 width="260.000000pt" height="260.000000pt" viewBox="0 0 260.000000 260.000000"
 preserveAspectRatio="xMidYMid meet">
<metadata>
Created by potrace 1.14, written by Peter Selinger 2001-2017
</metadata>
<g transform="translate(0.000000,260.000000) scale(0.100000,-0.100000)"
fill="#000000" stroke="none">
<path d="M1477 2244 c-1 -2 -28 -5 -58 -8 -133 -13 -295 -73 -419 -153 -99
-65 -222 -177 -269 -246 -8 -12 -18 -24 -22 -27 -32 -24 -141 -230 -178 -338
-120 -345 -98 -702 57 -928 61 -90 179 -204 210 -204 6 0 12 -4 14 -9 5 -13
134 -67 208 -87 85 -23 298 -27 400 -8 362 67 660 319 810 687 36 88 73 220
85 303 4 21 8 50 11 64 7 37 5 238 -2 290 -10 69 -51 205 -80 263 -126 249
-362 392 -661 401 -57 1 -104 1 -106 0z m186 -401 c232 -92 294 -509 128 -858
-80 -168 -195 -288 -334 -350 -152 -67 -336 -45 -432 51 -36 36 -90 135 -101
185 -39 176 -19 399 51 570 86 213 262 382 438 419 64 14 195 5 250 -17z"/>
</g>
</svg>
